<?xml version="1.0" encoding="UTF-8" standalone="no"?>
<svg
   xmlns:dc="http://purl.org/dc/elements/1.1/"
   xmlns:cc="http://creativecommons.org/ns#"
   xmlns:rdf="http://www.w3.org/1999/02/22-rdf-syntax-ns#"
   xmlns:svg="http://www.w3.org/2000/svg"
   xmlns="http://www.w3.org/2000/svg"
   xmlns:sodipodi="http://sodipodi.sourceforge.net/DTD/sodipodi-0.dtd"
   xmlns:inkscape="http://www.inkscape.org/namespaces/inkscape"
   width="3.5in"
   height="3.5in"
   viewBox="0 0 88.900001 88.900003"
   version="1.1"
   id="svg8"
   inkscape:version="1.0.2 (e86c8708, 2021-01-15)"
   sodipodi:docname="btracker_button.svg">
  <defs
     id="defs2">
    <rect
       x="83.734285"
       y="10.23187"
       width="466.48976"
       height="78.30513"
       id="rect2" />
    <linearGradient
       id="swatch6"
       inkscape:swatch="solid">
      <stop
         style="stop-color:#000000;stop-opacity:1;"
         offset="0"
         id="stop6" />
    </linearGradient>
    <rect
       x="212.57232"
       y="33.827816"
       width="55.544438"
       height="56.170879"
       id="rect1" />
  </defs>
  <sodipodi:namedview
     id="base"
     pagecolor="#ffffff"
     bordercolor="#666666"
     borderopacity="1.0"
     inkscape:pageopacity="0.0"
     inkscape:pageshadow="2"
     inkscape:zoom="1.6571773"
     inkscape:cx="165.20162"
     inkscape:cy="147.87153"
     inkscape:document-units="mm"
     inkscape:current-layer="layer1"
     inkscape:document-rotation="0"
     showgrid="false"
     units="in"
     inkscape:window-width="1680"
     inkscape:window-height="997"
     inkscape:window-x="0"
     inkscape:window-y="25"
     inkscape:window-maximized="0">
    <inkscape:grid
       type="xygrid"
       id="grid10268" />
  </sodipodi:namedview>
  <metadata
     id="metadata5">
    <rdf:RDF>
      <cc:Work
         rdf:about="">
        <dc:format>image/svg+xml</dc:format>
        <dc:type
           rdf:resource="http://purl.org/dc/dcmitype/StillImage" />
        <dc:title></dc:title>
      </cc:Work>
    </rdf:RDF>
  </metadata>
  <g
     inkscape:label="Layer 1"
     inkscape:groupmode="layer"
     id="layer1">
    <rect
       style="fill:none;stroke:#9ab2d6;stroke-width:1.14712;stroke-miterlimit:4;stroke-dasharray:none;stroke-opacity:1"
       id="rect950"
       width="86.029007"
       height="86.029007"
       x="1.4718592"
       y="1.3519907" />
    <g
       id="layer1-7"
       transform="matrix(0.56344703,0,0,0.56344703,1.7949956,36.090178)">
      <g
         id="g2217">
        <path
           style="fill:#9ab2d6;fill-opacity:1;stroke-width:0.0293201"
           d="m 140.73974,19.449342 c -0.41599,-0.334789 -0.61366,-0.917612 -0.5229,-1.541585 0.0445,-0.304955 0.2696,-0.843822 0.47263,-1.130857 0.18569,-0.262575 0.46205,-0.570063 0.7131,-0.793518 0.2537,-0.225815 0.67884,-0.539051 0.7122,-0.524724 0.013,0.0059 0.19804,0.16232 0.40999,0.347819 0.21193,0.185493 0.71065,0.611087 1.1082,0.945796 l 0.72277,0.608564 -0.0933,0.168444 c -0.83561,1.508038 -1.92811,2.327812 -2.91017,2.183724 -0.19099,-0.02803 -0.4678,-0.147159 -0.61252,-0.263645 z m 3.49917,-3.687018 c -0.40152,-0.311395 -0.90388,-0.696349 -1.11632,-0.855451 l -0.38631,-0.289284 0.17228,-0.417058 c 0.33561,-0.814929 0.45138,-1.295411 0.45343,-1.881132 0.003,-0.898756 0.22191,-1.531793 0.86185,-2.4934779 0.95925,-1.4415456 1.97267,-2.3022898 2.92097,-2.4808995 0.3759,-0.070798 0.55602,-0.053652 0.93245,0.088782 0.58466,0.2212271 0.91011,0.5265842 1.11518,1.0463369 0.24128,0.6113842 0.18616,1.4105069 -0.17618,2.5564425 -0.16785,0.530744 -0.54238,1.389346 -0.76222,1.746782 -0.80353,1.307812 -1.67936,2.42065 -2.40935,3.061367 -0.38558,0.338412 -0.74883,0.551595 -0.84881,0.498133 -0.0154,-0.0076 -0.35519,-0.269032 -0.75671,-0.580425 z m -4.28567,-2.111418 c -0.25694,-0.203109 -0.46415,-0.516852 -0.58749,-0.889459 -0.16766,-0.505873 -0.175,-1.25437 -0.02,-1.985314 0.0727,-0.343108 0.22857,-0.90441 0.25367,-0.9138162 0.007,-0.00247 0.55409,0.054979 1.21606,0.1278854 0.66197,0.072908 1.30683,0.1404048 1.43304,0.1499968 0.12617,0.0096 0.24322,0.02335 0.26003,0.03056 0.0408,0.01753 0.0992,0.476002 0.11295,0.886652 0.0221,0.659846 -0.0645,1.156162 -0.29142,1.669463 -0.2436,0.550703 -0.58285,0.906843 -1.03572,1.086727 -0.47829,0.189974 -0.97058,0.130252 -1.34115,-0.162703 z M 139.7974,8.5350017 c -0.26342,-0.6669189 -0.12694,-2.4185233 0.33163,-4.253464 0.18672,-0.7471487 0.31497,-1.1029721 0.61405,-1.703712 0.90389,-1.81539984 1.69725,-2.52952651 2.74996,-2.47525862 0.25717,0.0132588 0.78146,0.20056669 1.01078,0.36110644 0.58353,0.408513 0.92367,1.36275678 0.89205,2.50256998 -0.0153,0.5498056 -0.0962,1.135243 -0.25031,1.8114482 -0.25492,1.1182044 -0.56191,1.7078224 -1.21302,2.3298169 -0.43183,0.4125212 -0.70459,0.8333639 -1.02819,1.5864202 -0.17165,0.3994021 -0.19618,0.4430048 -0.24374,0.4372363 -0.0292,-0.00357 -0.30646,-0.049687 -0.61623,-0.1024797 -0.30973,-0.052791 -0.92399,-0.1507838 -1.36495,-0.2177547 -0.44097,-0.066969 -0.80701,-0.1240144 -0.81341,-0.1267688 -0.006,-0.00312 -0.0376,-0.069748 -0.0678,-0.1494211 z"
           id="path892-3" />
        <path
           style="fill:#9ab2d6;fill-opacity:1;stroke-width:0.0293201"
           d="m 125.69293,28.427408 c -0.19181,-0.498343 -0.0703,-1.101659 0.32135,-1.595818 0.19147,-0.241475 0.65666,-0.594575 0.97631,-0.740961 0.29239,-0.133934 0.68573,-0.261208 1.01502,-0.328499 0.33277,-0.06801 0.85768,-0.125592 0.87935,-0.09646 0.008,0.01155 0.0898,0.239783 0.18008,0.506598 0.0902,0.266799 0.30802,0.885207 0.48391,1.374222 l 0.31976,0.889094 -0.16529,0.09884 c -1.47957,0.885044 -2.83593,1.04586 -3.61306,0.42839 -0.15113,-0.120101 -0.33078,-0.362046 -0.39751,-0.535436 z m 4.87694,-1.433089 c -0.19104,-0.470851 -0.43236,-1.055918 -0.53627,-1.300151 l -0.18896,-0.444079 0.35831,-0.274283 c 0.69924,-0.536463 1.04052,-0.893956 1.33622,-1.399559 0.45373,-0.775831 0.96067,-1.21357 1.9968,-1.724242 1.55314,-0.765487 2.86166,-1.001421 3.77154,-0.680013 0.36066,0.127405 0.50787,0.232618 0.76197,0.544734 0.3947,0.484762 0.52295,0.912205 0.43949,1.464682 -0.0981,0.649911 -0.54681,1.313464 -1.4353,2.122817 -0.41153,0.374838 -1.16636,0.929542 -1.53589,1.128384 -1.35134,0.727959 -2.66737,1.250989 -3.62031,1.438846 -0.50335,0.09921 -0.92453,0.10131 -0.98418,0.0049 -0.01,-0.01431 -0.17221,-0.410948 -0.36324,-0.881794 z m -2.64733,-3.977022 c -0.12031,-0.304621 -0.1421,-0.679984 -0.0618,-1.064173 0.10884,-0.5217 0.47813,-1.172802 0.97903,-1.727242 0.23508,-0.260289 0.65157,-0.667576 0.67801,-0.663111 0.007,0.0014 0.45166,0.325612 0.98765,0.720879 0.53599,0.395268 1.05991,0.777266 1.16426,0.848908 0.1043,0.07163 0.19866,0.142256 0.20958,0.15692 0.0265,0.03562 -0.15308,0.461498 -0.34729,0.823589 -0.31199,0.581857 -0.63621,0.967525 -1.08987,1.297773 -0.48707,0.354087 -0.95923,0.491884 -1.44123,0.420202 -0.50903,-0.0757 -0.90488,-0.374416 -1.07838,-0.813776 z m 2.43258,-4.503255 c 0.10684,-0.709055 1.10391,-2.155633 2.4214,-3.512654 0.53646,-0.552545 0.82596,-0.795956 1.38612,-1.165485 1.69288,-1.116638 2.73748,-1.336187 3.6208,-0.760952 0.21578,0.140522 0.57527,0.565646 0.69306,0.819588 0.29973,0.646192 0.11506,1.642273 -0.4843,2.612295 -0.28908,0.467924 -0.65287,0.933696 -1.12558,1.441208 -0.78165,0.839276 -1.34307,1.195213 -2.2184,1.406457 -0.58054,0.140104 -1.02766,0.367234 -1.68548,0.8562 -0.3489,0.259331 -0.392,0.284734 -0.43024,0.255877 -0.0235,-0.01779 -0.24015,-0.196778 -0.4816,-0.397901 -0.2414,-0.201088 -0.72353,-0.594113 -1.07133,-0.873332 -0.34782,-0.279218 -0.6358,-0.512255 -0.63996,-0.517858 -0.004,-0.0056 0.002,-0.07921 0.0163,-0.163271 z"
           id="path892" />
        <path
           style="fill:#9ab2d6;fill-opacity:1;stroke-width:0.0293201"
           d="m 106.50843,23.894737 c 0.20687,-0.492283 0.71243,-0.843227 1.33721,-0.928317 0.30536,-0.04152 0.88546,0.02606 1.2174,0.141914 0.30365,0.105951 0.6755,0.286631 0.9596,0.466203 0.28711,0.181466 0.70556,0.50355 0.70101,0.539571 -0.003,0.01379 -0.1013,0.235151 -0.22107,0.490102 -0.11977,0.254901 -0.39105,0.851792 -0.60295,1.326317 l -0.38526,0.862729 -0.1877,-0.04317 c -1.68016,-0.386615 -2.76978,-1.210203 -2.90252,-2.19386 -0.0258,-0.19132 0.0122,-0.490249 0.0842,-0.661518 z m 4.51002,2.344771 c 0.18834,-0.471931 0.41963,-1.061041 0.51387,-1.309166 l 0.17136,-0.451163 0.44842,0.05039 c 0.87592,0.09747 1.36969,0.07606 1.9332,-0.08376 0.86465,-0.245234 1.5335,-0.20977 2.63452,0.139672 1.6504,0.523804 2.75756,1.260079 3.19113,2.122172 0.17185,0.341718 0.20514,0.519576 0.1722,0.920697 -0.0512,0.623028 -0.25477,1.020141 -0.69765,1.360784 -0.52096,0.400768 -1.30423,0.5685 -2.50567,0.536744 -0.55645,-0.01474 -1.48509,-0.137558 -1.88935,-0.250133 -1.47887,-0.411083 -2.79031,-0.945501 -3.60771,-1.470131 -0.43175,-0.277128 -0.73696,-0.567372 -0.7132,-0.678226 0.002,-0.01731 0.16047,-0.415671 0.34886,-0.88758 z m 0.84567,-4.702117 c 0.12423,-0.30304 0.36855,-0.588846 0.69259,-0.810305 0.43989,-0.300859 1.15726,-0.514628 1.90258,-0.567516 0.34984,-0.02488 0.93235,-0.03011 0.94833,-0.0086 0.004,0.0057 0.10019,0.547705 0.21294,1.204064 0.11276,0.656362 0.226,1.294791 0.25163,1.418744 0.0256,0.123913 0.0447,0.240212 0.0425,0.258352 -0.005,0.04412 -0.43009,0.226797 -0.82099,0.353408 -0.62807,0.20352 -1.12905,0.257078 -1.685,0.180999 -0.59657,-0.08203 -1.03255,-0.309725 -1.33052,-0.695308 -0.31468,-0.407209 -0.39324,-0.896858 -0.21402,-1.333915 z m 4.87387,-1.562713 c 0.56823,-0.437366 2.28939,-0.78997 4.17961,-0.856022 0.76966,-0.02689 1.14706,-0.0019 1.80703,0.119626 1.99445,0.367355 2.8999,0.932622 3.13849,1.959379 0.0583,0.25082 0.0231,0.806447 -0.0679,1.071189 -0.23145,0.673671 -1.05464,1.264129 -2.15886,1.548533 -0.53263,0.137222 -1.11765,0.221138 -1.81013,0.259709 -1.14511,0.06384 -1.79657,-0.06836 -2.5742,-0.522368 -0.51575,-0.301104 -0.99555,-0.447023 -1.8087,-0.550061 -0.43127,-0.05465 -0.47995,-0.06619 -0.48754,-0.113491 -0.005,-0.02911 -0.0369,-0.308276 -0.0717,-0.620582 -0.0348,-0.312248 -0.11026,-0.929681 -0.16769,-1.371985 -0.0574,-0.442315 -0.10369,-0.809871 -0.10282,-0.816796 9.9e-4,-0.0068 0.0564,-0.05573 0.12484,-0.106465 z"
           id="path892-7" />
        <path
           style="fill:#9ab2d6;fill-opacity:1;stroke-width:0.0293201"
           d="m 96.384359,8.372173 c 0.458026,-0.274499 1.07324,-0.258337 1.627286,0.04269 0.270751,0.147183 0.698452,0.544865 0.897523,0.834649 0.182123,0.265064 0.37502,0.630725 0.497825,0.943577 0.124113,0.316161 0.27092,0.823393 0.245941,0.849741 -0.01058,0.0093 -0.22079,0.129652 -0.468185,0.264339 -0.247365,0.134646 -0.819207,0.455376 -1.270783,0.712581 L 97.092957,12.48737 96.96717,12.341518 C 95.841338,11.035811 95.450124,9.727181 95.92506,8.85561 96.01745,8.686101 96.224938,8.467581 96.384311,8.372098 Z m 2.248813,4.558601 c 0.431047,-0.269052 0.966044,-0.607168 1.188818,-0.751456 l 0.40507,-0.262354 0.33171,0.305918 c 0.64851,0.596791 1.05927,0.871655 1.60813,1.07619 0.84218,0.313834 1.36044,0.738132 2.04136,1.671244 1.02068,1.398712 1.4777,2.647328 1.31722,3.59887 -0.0636,0.377169 -0.14201,0.540256 -0.40588,0.844158 -0.40987,0.472004 -0.80893,0.671726 -1.36752,0.684341 -0.65711,0.01489 -1.38783,-0.313277 -2.33766,-1.049676 -0.4399,-0.341092 -1.11593,-0.989513 -1.37525,-1.319442 -0.94908,-1.206352 -1.690206,-2.413081 -2.038819,-3.319634 -0.184129,-0.478858 -0.258477,-0.893424 -0.173738,-0.968739 0.01185,-0.01277 0.375293,-0.240183 0.806365,-0.50919 z m 3.463668,-3.290607 c 0.27944,-0.17082 0.6455,-0.256697 1.03776,-0.243533 0.53264,0.01769 1.23747,0.269756 1.86965,0.668065 0.29676,0.186914 0.76949,0.527323 0.76964,0.554118 -1.4e-4,0.007 -0.24326,0.500844 -0.54067,1.096716 -0.29741,0.595881 -0.58382,1.177587 -0.63649,1.292684 -0.0527,0.115046 -0.10608,0.220108 -0.11858,0.233431 -0.0301,0.03261 -0.48093,-0.0716 -0.87098,-0.200792 -0.62677,-0.207499 -1.06235,-0.46071 -1.46556,-0.850958 -0.43243,-0.419076 -0.64921,-0.86058 -0.66132,-1.347729 -0.0128,-0.514468 0.21356,-0.955708 0.61663,-1.20204 z m 4.85392,1.623596 c 0.71687,-0.01643 2.3131,0.717566 3.87611,1.782609 0.63642,0.433668 0.9259,0.677093 1.38608,1.165522 1.39062,1.476126 1.78619,2.467537 1.37109,3.43648 -0.10139,0.236707 -0.45849,0.663837 -0.68848,0.823439 -0.58516,0.406193 -1.59815,0.395213 -2.65665,-0.02878 -0.5106,-0.204485 -1.0319,-0.482941 -1.61301,-0.86153 -0.96097,-0.626003 -1.40798,-1.118003 -1.76632,-1.944094 -0.23766,-0.547883 -0.53816,-0.949385 -1.13277,-1.513533 -0.31537,-0.299208 -0.34778,-0.337312 -0.32592,-0.379938 0.0132,-0.02643 0.15263,-0.270367 0.30934,-0.542742 0.15668,-0.272328 0.46113,-0.814756 0.67651,-1.205325 0.2154,-0.39056 0.39554,-0.714276 0.40033,-0.719344 0.005,-0.0049 0.0785,-0.01156 0.16364,-0.01198 z"
           id="path892-7-4" />
        <path
           style="fill:#9ab2d6;fill-opacity:1;stroke-width:0.0293201"
           d="m 76.724702,6.9701222 c 0.173868,-0.5048871 0.655111,-0.8884885 1.272895,-1.0147086 0.301946,-0.06162 0.885241,-0.032544 1.22411,0.061109 0.309987,0.085643 0.692972,0.2413385 0.988325,0.4017295 0.298478,0.1620868 0.737309,0.455796 0.735149,0.492039 -0.0021,0.01394 -0.08553,0.2413351 -0.188183,0.5036507 -0.10265,0.2622585 -0.333865,0.8757799 -0.513928,1.3632802 L 79.915701,9.663537 79.725555,9.632877 C 78.023523,9.358199 76.881834,8.608461 76.684345,7.6357334 76.645955,7.4465372 76.664095,7.1457515 76.724615,6.9700991 Z m 4.65517,2.0414267 c 0.156718,-0.483346 0.348548,-1.0864621 0.426172,-1.340273 l 0.141153,-0.4615053 0.450768,0.020629 c 0.880441,0.03934 1.371722,-0.014677 1.923428,-0.2114053 0.846542,-0.301869 1.516277,-0.3107102 2.63799,-0.034833 1.68142,0.4135347 2.834845,1.0749873 3.32447,1.9065237 0.194084,0.329595 0.239043,0.504878 0.232697,0.9073 -0.0099,0.625047 -0.186755,1.03475 -0.606142,1.403933 -0.493324,0.434334 -1.263788,0.653494 -2.464696,0.701248 -0.556209,0.02209 -1.490943,-0.03905 -1.901763,-0.124653 -1.502812,-0.3124 -2.846708,-0.758938 -3.697008,-1.228369 -0.449122,-0.247979 -0.772854,-0.517406 -0.756475,-0.629589 8.88e-4,-0.01743 0.132631,-0.425369 0.289401,-0.908701 z m 0.532903,-4.7477411 c 0.103918,-0.3105915 0.328803,-0.611925 0.637485,-0.8543224 0.419033,-0.3292869 1.120701,-0.5900258 1.860894,-0.69208 0.347425,-0.047954 0.928319,-0.091693 0.94568,-0.071283 0.0044,0.00545 0.136186,0.5398829 0.292093,1.1873466 0.155912,0.6474707 0.311119,1.2770128 0.34489,1.3990005 0.03371,0.121968 0.06048,0.2367327 0.05949,0.2549746 -0.002,0.044331 -0.414156,0.2547455 -0.795826,0.4069205 C 84.64424,6.1389699 84.147901,6.2255338 83.588134,6.1863843 82.98745,6.1439792 82.537374,5.9456089 82.214559,5.5805723 81.873633,5.1950717 81.762877,4.7116831 81.912811,4.2637272 Z m 4.759866,-1.8815614 c 0.538069,-0.473977 2.232142,-0.9396153 4.113863,-1.1305109 0.766197,-0.077722 1.144422,-0.07774 1.810983,-1.175e-4 2.014373,0.2346758 2.955223,0.7388324 3.261179,1.747569 0.07476,0.2464177 0.07637,0.8031563 0.0031,1.0733345 C 95.675342,4.7600237 94.893,5.4036161 93.809999,5.760408 93.287606,5.9325489 92.709414,6.0549643 92.020999,6.1392405 90.88262,6.2786538 90.22384,6.1898214 89.41789,5.7882271 88.883364,5.5218806 88.394961,5.4080103 87.576781,5.3589612 87.142837,5.3329507 87.093508,5.3246487 87.082802,5.2779558 87.075893,5.249232 87.025597,4.9727971 86.970223,4.6634756 86.914855,4.3542093 86.798735,3.7431168 86.712189,3.3055755 86.625663,2.8680282 86.555175,2.5043334 86.555579,2.4973717 c 6.73e-4,-0.00697 0.05264,-0.059373 0.117529,-0.1144931 z"
           id="path892-7-4-6" />
        <path
           style="fill:#9ab2d6;fill-opacity:1;stroke-width:0.0293201"
           d="m 59.267793,13.308864 c -0.03858,-0.53259 0.253141,-1.074477 0.771586,-1.43337 0.25342,-0.175347 0.801194,-0.377887 1.149599,-0.424972 0.318699,-0.0431 0.732057,-0.05047 1.066681,-0.01909 0.338165,0.03172 0.857122,0.129294 0.869382,0.163469 0.0035,0.01364 0.01622,0.255529 0.02493,0.537081 0.0087,0.281497 0.03725,0.936519 0.0633,1.455557 l 0.04737,0.943654 -0.186893,0.04655 c -1.673,0.41645 -3.017493,0.175823 -3.581436,-0.640981 -0.109663,-0.158879 -0.211213,-0.442584 -0.224608,-0.627887 z m 5.082892,0.0473 c -0.04588,-0.506042 -0.106563,-1.136015 -0.134953,-1.399908 l -0.05161,-0.479841 0.422594,-0.158214 c 0.825036,-0.309902 1.255539,-0.552682 1.68551,-0.950432 0.659747,-0.6103216 1.272099,-0.8817041 2.411964,-1.0689424 1.708628,-0.2806675 3.029209,-0.1258331 3.806276,0.4463142 0.308016,0.2267767 0.418255,0.3702792 0.570599,0.7428042 0.236585,0.578627 0.235007,1.024869 -0.0055,1.529184 -0.282891,0.593285 -0.905194,1.097651 -1.990669,1.613603 -0.502755,0.238941 -1.386284,0.550138 -1.797684,0.632907 -1.504643,0.303456 -2.915888,0.421107 -3.882265,0.323689 -0.510445,-0.05148 -0.914023,-0.171974 -0.943058,-0.281565 -0.006,-0.01638 -0.04525,-0.443264 -0.09108,-0.949313 z M 62.974497,8.7811075 c -0.02653,-0.3264386 0.06181,-0.6919129 0.250364,-1.0361331 0.255872,-0.4674916 0.798573,-0.9830481 1.439072,-1.3678357 0.300611,-0.1806566 0.817555,-0.4492072 0.841541,-0.4372641 0.0062,0.00328 0.337437,0.4428962 0.735293,0.9769621 0.397864,0.5340703 0.788033,1.0519323 0.867035,1.1508266 0.07894,0.0989 0.148664,0.1939048 0.154925,0.2110675 0.01559,0.041549 -0.280687,0.3970331 -0.571821,0.6869825 C 66.223173,9.4316768 65.800811,9.7063692 65.270712,9.8903987 64.70171,10.087518 64.209888,10.082026 63.769571,9.8732611 63.304558,9.652798 63.012711,9.251853 62.974499,8.7810192 Z m 3.637151,-3.6010739 c 0.308453,-0.6473248 1.683138,-1.741373 3.338361,-2.6565519 0.673975,-0.3726354 1.021749,-0.521321 1.665168,-0.7119518 1.944477,-0.576004 3.007766,-0.4822481 3.685599,0.3250315 0.165602,0.1971972 0.38592,0.7084901 0.424747,0.9857216 0.09882,0.7054418 -0.367575,1.6047458 -1.223159,2.3585146 C 74.089683,5.8444198 73.606148,6.1842519 73.006271,6.5323402 72.014321,7.1079949 71.37365,7.2852597 70.474718,7.2327854 69.878524,7.1979839 69.384674,7.285256 68.613071,7.5617572 68.203832,7.7084109 68.15521,7.7201669 68.127012,7.6814406 68.109369,7.6577445 67.954463,7.4233302 67.781961,7.1606724 67.609486,6.8980629 67.26251,6.3818016 67.010946,6.0134974 66.759398,5.6451797 66.551626,5.3384661 66.549261,5.3319059 c -0.0021,-0.00667 0.02506,-0.075285 0.06306,-0.1514745 z"
           id="path892-7-4-6-1" />
        <path
           style="fill:#9ab2d6;fill-opacity:1;stroke-width:0.0293201"
           d="m 44.907835,25.948518 c -0.224297,-0.484594 -0.142889,-1.094607 0.215282,-1.613551 0.175105,-0.253587 0.615964,-0.636631 0.925251,-0.803797 0.282906,-0.15294 0.66699,-0.305907 0.991113,-0.3948 0.327556,-0.08983 0.847511,-0.181936 0.871057,-0.154299 0.0081,0.01152 0.105472,0.233311 0.213114,0.493619 0.107614,0.260261 0.365792,0.862932 0.573578,1.339277 l 0.377781,0.86603 -0.158385,0.109591 c -1.417895,0.980782 -2.760674,1.230795 -3.576872,0.665976 -0.158732,-0.109875 -0.353986,-0.33939 -0.431999,-0.508004 z m 4.771661,-1.751936 C 49.457752,23.739403 49.178365,23.17152 49.058553,22.934685 L 48.840707,22.504041 49.180126,22.2067 c 0.662293,-0.581458 0.979227,-0.960704 1.2409,-1.484734 0.401506,-0.804084 0.878449,-1.274349 1.878605,-1.85231 1.499206,-0.866351 2.789299,-1.188171 3.718414,-0.927537 0.368281,0.103299 0.522118,0.198586 0.796275,0.493241 0.425795,0.45769 0.582011,0.875699 0.535236,1.432466 -0.05499,0.654974 -0.458906,1.346707 -1.29202,2.212953 -0.385881,0.401187 -1.102435,1.004526 -1.458043,1.227335 -1.300329,0.815585 -2.578946,1.424349 -3.517398,1.674713 -0.495704,0.132221 -0.915823,0.162117 -0.981712,0.06986 -0.0114,-0.0132 -0.19897,-0.398674 -0.42067,-0.855878 z m -2.904123,-3.79356 c -0.140174,-0.296002 -0.186685,-0.669114 -0.131936,-1.057757 0.07416,-0.527748 0.399661,-1.20182 0.86286,-1.788119 0.217376,-0.275231 0.606067,-0.709132 0.632726,-0.706435 0.007,8.96e-4 0.472176,0.295078 1.033089,0.654093 0.560923,0.359015 1.10892,0.705588 1.217772,0.770184 0.108796,0.06462 0.207594,0.128859 0.219516,0.142702 0.02927,0.03336 -0.122275,0.470606 -0.292163,0.844728 -0.272894,0.601187 -0.570935,1.007409 -1.0018,1.366891 -0.462633,0.385474 -0.924663,0.554136 -1.410345,0.514437 -0.512917,-0.04191 -0.92762,-0.313857 -1.129749,-0.74081 z m 2.129943,-4.654025 c 0.0598,-0.714561 0.959179,-2.223805 2.184204,-3.664857 0.498809,-0.586762 0.771602,-0.84875 1.306143,-1.254452 1.615473,-1.2259761 2.643291,-1.5140125 3.562666,-0.9983492 0.224602,0.1259537 0.611385,0.5264032 0.745675,0.7720262 0.341732,0.625007 0.223223,1.631102 -0.310794,2.638583 -0.257559,0.485994 -0.589807,0.974771 -1.027973,1.512384 -0.724526,0.889048 -1.26122,1.281275 -2.120697,1.549848 -0.570025,0.178128 -1.001173,0.434283 -1.625283,0.965613 -0.33101,0.281808 -0.372341,0.309988 -0.412405,0.283725 -0.02488,-0.01594 -0.252627,-0.180483 -0.506817,-0.365236 -0.254147,-0.184717 -0.761172,-0.545055 -1.126656,-0.8007 -0.365473,-0.255662 -0.668226,-0.469164 -0.672757,-0.474465 -0.0043,-0.0055 -0.0032,-0.07928 0.0055,-0.163985 z"
           id="path892-7-4-6-1-7" />
        <path
           style="fill:#9ab2d6;fill-opacity:1;stroke-width:0.0293201"
           d="m 25.749305,24.766654 c 0.13506,-0.516623 0.585806,-0.935636 1.192232,-1.108366 0.2964,-0.08435 0.88022,-0.09962 1.225218,-0.03195 0.315592,0.06187 0.709286,0.188066 1.015958,0.325578 0.309918,0.138972 0.769768,0.398538 0.770365,0.43484 -0.0011,0.01404 -0.06697,0.247131 -0.149429,0.516477 -0.08245,0.269291 -0.266453,0.898587 -0.40901,1.398344 l -0.25917,0.908602 -0.191925,-0.01614 c -1.717967,-0.144742 -2.913253,-0.805691 -3.183979,-1.760629 -0.05263,-0.185738 -0.05737,-0.487033 -0.01035,-0.666772 z m 4.796647,1.682322 c 0.119596,-0.493842 0.265105,-1.109776 0.323247,-1.368746 l 0.105731,-0.470884 0.451033,-0.01363 c 0.880889,-0.02758 1.366654,-0.11872 1.901843,-0.356741 0.821196,-0.365231 1.48833,-0.424864 2.627743,-0.234891 1.70795,0.284762 2.908238,0.85679 3.459546,1.648778 0.218534,0.313918 0.276663,0.485284 0.300869,0.887028 0.03756,0.623996 -0.107703,1.045937 -0.497861,1.445881 -0.458949,0.47051 -1.210559,0.747502 -2.404382,0.886239 -0.552929,0.06423 -1.489608,0.07419 -1.905739,0.02001 -1.522183,-0.197471 -2.896087,-0.54075 -3.779554,-0.94431 -0.466645,-0.213185 -0.809885,-0.457274 -0.802068,-0.570374 -4.04e-4,-0.01744 0.09997,-0.434208 0.219615,-0.928041 z m 0.171122,-4.774489 c 0.08005,-0.317581 0.281427,-0.635109 0.570825,-0.900231 0.392838,-0.360133 1.072701,-0.67336 1.803016,-0.831282 0.342786,-0.07418 0.918686,-0.161868 0.937545,-0.142833 0.0048,0.0051 0.176759,0.527993 0.381343,1.161761 0.204591,0.633773 0.407119,1.249724 0.450048,1.368798 0.04287,0.119056 0.07827,0.23146 0.07867,0.249725 0.0014,0.04436 -0.393634,0.285436 -0.762657,0.466132 -0.592914,0.290431 -1.081253,0.414406 -1.642377,0.417843 -0.60217,0.0033 -1.066,-0.160353 -1.415582,-0.499845 -0.369196,-0.358518 -0.516309,-0.832112 -0.400796,-1.290153 z m 4.603378,-2.237301 c 0.500554,-0.513438 2.154412,-1.106274 4.016224,-1.439398 0.758092,-0.135635 1.135225,-0.164352 1.805753,-0.13753 2.026373,0.08116 3.002765,0.512471 3.384378,1.495085 0.09324,0.240034 0.13709,0.795046 0.08453,1.070004 -0.13372,0.699667 -0.864975,1.400765 -1.917782,1.838703 -0.507825,0.211282 -1.075062,0.377215 -1.755097,0.513483 -1.12452,0.225389 -1.788141,0.186798 -2.622238,-0.152486 -0.553195,-0.225019 -1.04883,-0.301505 -1.868374,-0.288331 -0.434666,0.007 -0.484483,0.0025 -0.498702,-0.04329 -0.0091,-0.02812 -0.08019,-0.299939 -0.158878,-0.604167 -0.07868,-0.304173 -0.240829,-0.904693 -0.360324,-1.334407 -0.119475,-0.42972 -0.217357,-0.787018 -0.217482,-0.79399 1.79e-4,-0.007 0.04795,-0.06322 0.108525,-0.123059 z"
           id="path892-7-4-6-1-7-3" />
        <path
           style="fill:#9ab2d6;fill-opacity:1;stroke-width:0.0293201"
           d="m 7.8247072,26.719566 c 0.064244,-0.530108 0.4544458,-1.006014 1.032081,-1.25885 0.2823378,-0.123504 0.8587804,-0.21727 1.2097498,-0.196685 0.321049,0.0188 0.728154,0.09082 1.050553,0.185771 0.325812,0.09596 0.816433,0.291225 0.821914,0.327116 7.84e-4,0.01407 -0.03307,0.253899 -0.0785,0.531897 -0.04543,0.277942 -0.142993,0.926288 -0.216938,1.440692 l -0.134427,0.935231 -0.192351,0.0099 C 9.594978,28.782608 8.3215599,28.288678 7.924679,27.378907 7.847512,27.20195 7.802233,26.904039 7.8246152,26.719605 Z m 4.9795318,1.020926 c 0.05199,-0.505452 0.113213,-1.135371 0.135944,-1.399812 l 0.04134,-0.480835 0.445089,-0.07426 c 0.869146,-0.145976 1.338209,-0.301714 1.83646,-0.60965 0.764523,-0.472512 1.417542,-0.621459 2.572157,-0.586685 1.730751,0.05212 2.997141,0.457269 3.650101,1.167784 0.258828,0.281624 0.3395,0.443601 0.417604,0.83842 0.121304,0.613245 0.03416,1.050912 -0.298576,1.499762 -0.391397,0.528036 -1.098847,0.903742 -2.263102,1.202013 -0.53924,0.138119 -1.466043,0.274151 -1.885679,0.276514 -1.534907,0.0094 -2.942533,-0.145745 -3.872306,-0.426632 -0.491107,-0.14839 -0.864096,-0.344023 -0.871584,-0.457145 -0.0027,-0.01723 0.04058,-0.443717 0.09262,-0.949165 z M 12.33072,22.986461 c 0.03655,-0.325469 0.19332,-0.667228 0.444371,-0.968913 0.340754,-0.409761 0.97223,-0.811707 1.674619,-1.066557 0.329675,-0.119675 0.888515,-0.284133 0.909768,-0.267812 0.0056,0.0044 0.246265,0.499374 0.534343,1.099812 0.28809,0.600441 0.571737,1.1835 0.630315,1.295707 0.05854,0.112195 0.108761,0.218806 0.111622,0.236846 0.007,0.04382 -0.35161,0.335852 -0.692928,0.564607 -0.548388,0.367645 -1.01558,0.556265 -1.571131,0.635249 -0.596238,0.08438 -1.077884,-0.01531 -1.470007,-0.304624 -0.414121,-0.305524 -0.623683,-0.754987 -0.570916,-1.224412 z m 4.260088,-2.836949 c 0.426836,-0.576176 1.985773,-1.386373 3.785748,-1.967231 0.732914,-0.236507 1.102749,-0.31576 1.770782,-0.379497 2.018836,-0.192513 3.044422,0.103356 3.554905,1.025617 0.124679,0.225294 0.242926,0.769337 0.227849,1.048872 -0.03826,0.711302 -0.668417,1.504504 -1.652647,2.080256 -0.474735,0.277756 -1.014456,0.518579 -1.669945,0.745201 -1.083915,0.374797 -1.746686,0.425942 -2.618874,0.202095 -0.578467,-0.148458 -1.079882,-0.157491 -1.89019,-0.03405 -0.429757,0.06548 -0.479728,0.06773 -0.499987,0.02427 -0.0127,-0.02665 -0.119868,-0.286402 -0.238808,-0.577261 -0.118952,-0.290801 -0.36049,-0.864011 -0.53677,-1.273715 -0.17627,-0.409711 -0.321382,-0.75057 -0.322441,-0.757463 -7.76e-4,-0.0069 0.03905,-0.06911 0.09095,-0.136557 z"
           id="path892-7-4-6-1-7-3-9" />
      </g>
      <path
         style="fill:#000000;fill-opacity:1;stroke:#000000;stroke-width:0.0254699"
         d=""
         id="path851"
         transform="scale(0.26458333)" />
      <path
         style="fill:#000000;fill-opacity:1;stroke:#000000;stroke-width:0.0254699"
         d=""
         id="path853"
         transform="scale(0.26458333)" />
      <path
         style="fill:#000000;fill-opacity:1;stroke:#000000;stroke-width:0.0254699"
         d=""
         id="path859"
         transform="scale(0.26458333)" />
      <path
         style="fill:#000000;fill-opacity:1;stroke:#000000;stroke-width:0.0083319"
         d=""
         id="path867"
         transform="scale(0.26458333)" />
      <path
         style="fill:#000000;fill-opacity:1;stroke:#000000;stroke-width:0.0083319"
         d=""
         id="path871"
         transform="scale(0.26458333)" />
      <path
         style="fill:#000000;fill-opacity:1;stroke:#000000;stroke-width:0.0083319"
         d=""
         id="path873"
         transform="scale(0.26458333)" />
      <path
         style="fill:#000000;fill-opacity:1;stroke:#000000;stroke-width:0.0083319"
         d=""
         id="path885"
         transform="scale(0.26458333)" />
      <path
         style="fill:#000000;fill-opacity:1;stroke:#000000;stroke-width:0.00083319;stroke-miterlimit:4;stroke-dasharray:none"
         d=""
         id="path893"
         transform="scale(0.26458333)" />
      <path
         style="fill:#000000;fill-opacity:1;stroke:#000000;stroke-width:0.00083319;stroke-miterlimit:4;stroke-dasharray:none"
         d=""
         id="path897"
         transform="scale(0.26458333)" />
      <path
         style="fill:#000000;fill-opacity:1;stroke:#000000;stroke-width:0.00083319;stroke-miterlimit:4;stroke-dasharray:none"
         d=""
         id="path899"
         transform="scale(0.26458333)" />
      <path
         style="fill:#000000;fill-opacity:1;stroke:#000000;stroke-width:0.000497641;stroke-miterlimit:4;stroke-dasharray:none"
         d=""
         id="path931"
         transform="scale(0.26458333)" />
      <path
         style="fill:#000000;fill-opacity:1;stroke:#000000;stroke-width:0.000497641;stroke-miterlimit:4;stroke-dasharray:none"
         d=""
         id="path933"
         transform="scale(0.26458333)" />
      <path
         style="fill:#000000;fill-opacity:1;stroke:#000000;stroke-width:0.000497641;stroke-miterlimit:4;stroke-dasharray:none"
         d=""
         id="path935"
         transform="scale(0.26458333)" />
      <path
         style="fill:#000000;fill-opacity:1;stroke:#000000;stroke-width:0.000497641;stroke-miterlimit:4;stroke-dasharray:none"
         d=""
         id="path939"
         transform="scale(0.26458333)" />
      <path
         style="fill:#000000;fill-opacity:1;stroke:#000000;stroke-width:0.000497641;stroke-miterlimit:4;stroke-dasharray:none"
         d=""
         id="path941"
         transform="scale(0.26458333)" />
      <path
         style="fill:#000000;fill-opacity:1;stroke:#000000;stroke-width:0.000200374;stroke-miterlimit:4;stroke-dasharray:none"
         d=""
         id="path945"
         transform="scale(0.26458333)" />
      <path
         style="fill:#000000;fill-opacity:1;stroke:#000000;stroke-width:0.000200374;stroke-miterlimit:4;stroke-dasharray:none"
         d=""
         id="path951"
         transform="scale(0.26458333)" />
      <path
         style="fill:#000000;fill-opacity:1;stroke:#000000;stroke-width:0.000200374;stroke-miterlimit:4;stroke-dasharray:none"
         d=""
         id="path961"
         transform="scale(0.26458333)" />
      <path
         style="fill:#000000;fill-opacity:1;stroke:#000000;stroke-width:0.000200374;stroke-miterlimit:4;stroke-dasharray:none"
         d=""
         id="path969"
         transform="scale(0.26458333)" />
      <path
         style="fill:#000000;fill-opacity:1;stroke:#000000;stroke-width:0.000200374;stroke-miterlimit:4;stroke-dasharray:none"
         d=""
         id="path981"
         transform="scale(0.26458333)" />
      <path
         style="fill:#000000;fill-opacity:1;stroke:#000000;stroke-width:0.000147638;stroke-miterlimit:4;stroke-dasharray:none"
         d=""
         id="path1011"
         transform="scale(0.26458333)" />
      <path
         style="fill:#000000;fill-opacity:1;stroke:#000000;stroke-width:0.000147638;stroke-miterlimit:4;stroke-dasharray:none"
         d=""
         id="path1015"
         transform="scale(0.26458333)" />
      <path
         style="fill:#000000;fill-opacity:1;stroke:#000000;stroke-width:0.000147638;stroke-miterlimit:4;stroke-dasharray:none"
         d=""
         id="path1017"
         transform="scale(0.26458333)" />
      <path
         style="fill:#000000;fill-opacity:1;stroke:#000000;stroke-width:0.000147638;stroke-miterlimit:4;stroke-dasharray:none"
         d=""
         id="path1019"
         transform="scale(0.26458333)" />
      <path
         style="fill:#000000;fill-opacity:1;stroke:#000000;stroke-width:0.000147638;stroke-miterlimit:4;stroke-dasharray:none"
         d=""
         id="path1023"
         transform="scale(0.26458333)" />
      <path
         style="fill:#000000;fill-opacity:1;stroke:#000000;stroke-width:0.000147638;stroke-miterlimit:4;stroke-dasharray:none"
         d=""
         id="path1025"
         transform="scale(0.26458333)" />
      <path
         style="fill:#000000;fill-opacity:1;stroke:#000000;stroke-width:0.000147638;stroke-miterlimit:4;stroke-dasharray:none"
         d=""
         id="path1027"
         transform="scale(0.26458333)" />
      <path
         style="fill:#000000;fill-opacity:1;stroke:#000000;stroke-width:0.000147638;stroke-miterlimit:4;stroke-dasharray:none;stroke-opacity:1"
         d=""
         id="path1043"
         transform="scale(0.26458333)" />
      <path
         style="fill:#000000;fill-opacity:1;stroke:#000000;stroke-width:0.000147638;stroke-miterlimit:4;stroke-dasharray:none;stroke-opacity:1"
         d=""
         id="path1049"
         transform="scale(0.26458333)" />
      <path
         style="fill:#000000;fill-opacity:1;stroke:#000000;stroke-width:0.000147638;stroke-miterlimit:4;stroke-dasharray:none;stroke-opacity:1"
         d=""
         id="path1051"
         transform="scale(0.26458333)" />
      <path
         style="fill:#000000;fill-opacity:1;stroke:#000000;stroke-width:0.000147638;stroke-miterlimit:4;stroke-dasharray:none;stroke-opacity:1"
         d=""
         id="path1053"
         transform="scale(0.26458333)" />
      <path
         id="path974"
         style="font-style:normal;font-variant:normal;font-weight:normal;font-stretch:normal;font-size:25.4px;line-height:1.25;font-family:'Hiragino Kaku Gothic StdN';font-variant-ligatures:normal;font-variant-caps:normal;font-variant-numeric:normal;font-variant-east-asian:normal;fill:#000000;fill-opacity:1;stroke-width:0.264583"
         d="m 2.0683009,2.4983945 c 0.1524,1.2192 0.2030889,2.311458 0.2030889,3.657658 V 20.049776 c 0,1.778 -0.050689,2.641423 -0.2030889,3.733623 1.0922,-0.0508 1.8285433,-0.07597 3.7589433,-0.07597 H 7.2488637 V 2.5743585 H 5.8019236 c -2.0828,0 -2.4382227,2.36e-4 -3.7336227,-0.07596 z" />
      <path
         id="path1033"
         style="font-style:normal;font-variant:normal;font-weight:normal;font-stretch:normal;font-size:25.4px;line-height:1.25;font-family:'Hiragino Kaku Gothic StdN';font-variant-ligatures:normal;font-variant-caps:normal;font-variant-numeric:normal;font-variant-east-asian:normal;fill:#0096ff;fill-opacity:1;stroke-width:0.264583"
         d="M 7.2488629,2.5743575 V 23.707438 h 5.4875201 c 4.4196,0 7.010426,-2.1591 7.010426,-5.8167 0,-1.6764 -0.558864,-3.04799 -1.651064,-4.01319 -0.7366,-0.635 -1.397097,-0.94017 -2.641697,-1.21957 1.0414,-0.381 1.498438,-0.63464 2.057238,-1.11724 0.9652,-0.8636 1.473295,-2.0829405 1.473295,-3.6323405 0,-3.3528 -2.412968,-5.33404 -6.527768,-5.33404 z m 0.001,4.16564 h 4.4193701 c 1.4478,0 2.235523,0.71135 2.235523,1.95595 0,1.2446 -0.838163,2.0319205 -2.184363,2.0319205 H 7.2498629 Z m 0,8.0517005 h 4.6482961 c 1.625599,0 2.59054,0.86361 2.59054,2.33681 0,1.4986 -0.965017,2.38745 -2.565217,2.38745 H 7.2498949 Z" />
      <text
         xml:space="preserve"
         transform="scale(0.26458333)"
         id="text1"
         style="font-weight:bold;font-stretch:condensed;font-size:30.66669999999999874px;line-height:72.80289999999999395px;font-family:Arial;-inkscape-font-specification:'Arial Bold Condensed';white-space:pre;shape-inside:url(#rect1);display:inline;fill:#2967b2;fill-rule:evenodd;stroke-width:1.5;stroke-dashoffset:17.1337;" />
      <text
         xml:space="preserve"
         style="font-style:normal;font-variant:normal;font-weight:normal;font-stretch:normal;font-size:25.1273px;line-height:55.8641px;font-family:'Hiragino Kaku Gothic StdN';-inkscape-font-specification:'Hiragino Kaku Gothic StdN';font-variant-ligatures:normal;font-variant-caps:normal;font-variant-numeric:normal;font-variant-east-asian:normal;letter-spacing:0px;fill:#000000;fill-rule:evenodd;stroke:#000000;stroke-width:0;stroke-dasharray:none;stroke-dashoffset:17.1337"
         x="21.083246"
         y="22.58201"
         id="text2"
         transform="scale(0.97639947,1.024171)"><tspan
           sodipodi:role="line"
           id="tspan2"
           style="font-style:normal;font-variant:normal;font-weight:normal;font-stretch:normal;font-size:25.1273px;font-family:'Hiragino Kaku Gothic StdN';-inkscape-font-specification:'Hiragino Kaku Gothic StdN';font-variant-ligatures:normal;font-variant-caps:normal;font-variant-numeric:normal;font-variant-east-asian:normal;letter-spacing:0px;stroke-width:0;stroke-dasharray:none"
           x="21.083246"
           y="22.58201">Tracker</tspan></text>
    </g>
  </g>
</svg>
