<?xml version="1.0" encoding="UTF-8" standalone="no"?>
<svg
   xmlns:dc="http://purl.org/dc/elements/1.1/"
   xmlns:cc="http://creativecommons.org/ns#"
   xmlns:rdf="http://www.w3.org/1999/02/22-rdf-syntax-ns#"
   xmlns:svg="http://www.w3.org/2000/svg"
   xmlns="http://www.w3.org/2000/svg"
   xmlns:sodipodi="http://sodipodi.sourceforge.net/DTD/sodipodi-0.dtd"
   xmlns:inkscape="http://www.inkscape.org/namespaces/inkscape"
   width="3.5in"
   height="3.5in"
   viewBox="0 0 88.900001 88.900003"
   version="1.1"
   id="svg8"
   inkscape:version="1.0.2 (e86c8708, 2021-01-15)"
   sodipodi:docname="btyper3_button.svg">
  <defs
     id="defs2" />
  <sodipodi:namedview
     id="base"
     pagecolor="#ffffff"
     bordercolor="#666666"
     borderopacity="1.0"
     inkscape:pageopacity="0.0"
     inkscape:pageshadow="2"
     inkscape:zoom="1.6571773"
     inkscape:cx="165.20162"
     inkscape:cy="147.87153"
     inkscape:document-units="mm"
     inkscape:current-layer="layer1"
     inkscape:document-rotation="0"
     showgrid="false"
     units="in"
     inkscape:window-width="1680"
     inkscape:window-height="997"
     inkscape:window-x="0"
     inkscape:window-y="25"
     inkscape:window-maximized="0">
    <inkscape:grid
       type="xygrid"
       id="grid10268" />
  </sodipodi:namedview>
  <metadata
     id="metadata5">
    <rdf:RDF>
      <cc:Work
         rdf:about="">
        <dc:format>image/svg+xml</dc:format>
        <dc:type
           rdf:resource="http://purl.org/dc/dcmitype/StillImage" />
        <dc:title></dc:title>
      </cc:Work>
    </rdf:RDF>
  </metadata>
  <g
     inkscape:label="Layer 1"
     inkscape:groupmode="layer"
     id="layer1">
    <rect
       style="fill:none;stroke:#9ab2d6;stroke-width:1.14712;stroke-miterlimit:4;stroke-dasharray:none;stroke-opacity:1"
       id="rect950"
       width="86.029007"
       height="86.029007"
       x="1.4718592"
       y="1.3519907" />
    <g
       id="g10232"
       transform="matrix(0.22275138,0,0,0.22275138,-21.377822,-23.559672)">
      <path
         d="m 120.582,269.062 c 0.43,3.458 0.574,6.555 0.574,10.372 v 39.382 c 0,5.039 -0.144,7.489 -0.574,10.586 3.094,-0.144 5.184,-0.218 10.656,-0.218 h 4.032 v -59.903 h -4.106 c -5.902,0 -6.91,0 -10.582,-0.219 z"
         style="fill:#000000;fill-opacity:1;fill-rule:nonzero;stroke:none"
         id="path10234" />
      <path
         d="m 208.699,282.023 h 8.137 c 5.184,0 7.992,0.145 11.234,0.504 v -13.75 c -3.312,0.36 -6.195,0.504 -11.234,0.504 h -31.535 c -4.391,0 -8.352,-0.215 -10.727,-0.504 v 13.75 c 5.11,-0.429 6.336,-0.504 10.871,-0.504 h 8.496 v 36.289 c 0,4.536 -0.144,7.489 -0.578,10.872 h 15.914 c -0.433,-3.383 -0.578,-6.551 -0.578,-10.872 z"
         style="fill:#000000;fill-opacity:1;fill-rule:nonzero;stroke:none"
         id="path10236" />
      <path
         d="m 239.594,325.297 -1.512,3.098 c -1.082,2.156 -3.098,3.382 -5.832,3.382 -1.871,0 -3.242,-0.359 -5.617,-1.586 l -1.582,11.45 c 3.957,0.863 6.695,1.222 9.863,1.222 8.207,0 13.391,-3.093 16.27,-9.863 l 16.488,-38.086 c 2.519,-5.906 2.519,-5.906 4.32,-9.648 h -15.621 c -0.433,2.519 -1.082,4.605 -3.098,9.574 l -6.406,16.344 -6.625,-16.633 c -1.512,-3.887 -2.449,-6.981 -2.808,-9.285 h -15.625 c 0.937,1.8 1.226,2.445 4.32,9.648 z"
         style="fill:#000000;fill-opacity:1;fill-rule:nonzero;stroke:none"
         id="path10238" />
      <path
         d="m 291.07,342.215 c -0.433,-3.094 -0.578,-6.406 -0.578,-10.438 v -4.968 c -0.07,-1.008 -0.07,-1.946 -0.07,-2.594 2.016,1.73 3.094,2.523 4.969,3.312 2.664,1.153 6.336,1.875 9.718,1.875 5.903,0 11.161,-2.019 14.832,-5.691 4.102,-4.102 6.262,-10.078 6.262,-17.422 0,-7.273 -1.941,-12.961 -5.758,-16.777 -3.746,-3.672 -8.929,-5.543 -15.265,-5.543 -5.977,0 -10.438,1.511 -14.758,5.113 0,-0.363 0.07,-0.937 0.07,-1.371 v -2.445 h -14.183 c 0.433,3.672 0.574,6.621 0.574,11.304 v 35.133 c 0,3.817 -0.215,7.418 -0.574,10.512 z m 10.871,-23.688 c -6.48,0 -11.304,-5.109 -11.304,-11.879 0,-6.55 4.894,-11.808 10.871,-11.808 6.769,0 10.656,4.25 10.656,11.594 0,4.101 -1.152,7.414 -3.168,9.359 -1.871,1.801 -4.32,2.734 -7.055,2.734 z"
         style="fill:#000000;fill-opacity:1;fill-rule:nonzero;stroke:none"
         id="path10240" />
      <path
         d="m 375.773,311.258 c -0.074,-0.723 -0.074,-1.153 -0.074,-1.442 -0.215,-4.105 -0.504,-7.128 -1.078,-9.433 -2.519,-10.727 -10.367,-16.848 -21.601,-16.848 -13.75,0 -22.895,9.434 -22.895,23.692 0,7.125 2.305,13.246 6.551,17.566 4.105,4.105 9.648,6.121 16.703,6.121 7.129,0 12.891,-2.09 16.992,-6.121 2.016,-2.016 3.098,-3.672 4.754,-7.418 l -12.527,-3.527 c -0.578,1.871 -1.082,2.664 -2.16,3.672 -1.876,1.73 -4.395,2.664 -7.274,2.664 -5.687,0 -9.07,-3.094 -9.793,-8.926 z M 343.59,301.32 c 1.222,-4.75 4.32,-7.054 9.43,-7.054 4.968,0 8.066,2.445 9.074,7.054 z"
         style="fill:#000000;fill-opacity:1;fill-rule:nonzero;stroke:none"
         id="path10242" />
      <path
         d="m 417.352,285.266 c -3.383,-0.723 -4.825,-0.864 -7.129,-0.864 -6.551,0 -10.871,1.942 -14.399,6.551 v -5.687 h -14.328 c 0.434,3.093 0.574,5.613 0.574,10.871 v 22.175 c 0,4.68 -0.14,7.274 -0.574,10.872 h 14.902 c -0.429,-3.454 -0.574,-6.192 -0.574,-10.801 v -11.231 c 0.289,-3.168 0.793,-4.679 2.16,-6.406 2.086,-2.594 4.895,-3.891 8.567,-3.891 2.234,0 4.035,0.36 7.344,1.372 z"
         style="fill:#000000;fill-opacity:1;fill-rule:nonzero;stroke:none"
         id="path10244" />
      <path
         d="m 420.418,313.562 c 0.504,1.872 0.793,2.805 1.227,3.813 1.582,3.961 4.101,7.129 7.414,9.289 3.816,2.52 10.296,4.031 16.777,4.031 5.398,0 11.23,-1.078 14.976,-2.808 2.665,-1.223 5.184,-3.239 6.766,-5.399 1.871,-2.519 2.883,-5.902 2.883,-9.574 0,-4.176 -1.731,-7.922 -4.754,-10.656 -2.519,-2.16 -4.895,-3.168 -9.289,-3.817 8.281,-1.945 12.387,-6.695 12.387,-14.328 0,-4.105 -1.371,-7.562 -4.035,-10.226 -4.102,-3.957 -10.582,-6.117 -18.43,-6.117 -8.785,0 -15.41,2.445 -19.801,7.199 -2.305,2.519 -3.457,4.679 -4.824,9.144 l 15.551,2.231 c 1.082,-4.606 3.672,-6.625 8.785,-6.625 4.754,0 7.488,2.234 7.488,6.121 0,4.609 -3.383,6.914 -10.223,6.914 -2.808,0 -5.183,-0.145 -7.632,-0.434 v 12.383 c 2.808,-0.285 6.046,-0.43 8.855,-0.43 2.809,0 5.039,0.36 6.695,0.934 2.45,0.938 3.887,3.242 3.887,6.195 0,4.391 -3.527,7.2 -9.141,7.2 -3.457,0 -6.335,-1.082 -8.281,-3.098 -1.152,-1.223 -1.586,-2.231 -2.015,-4.606 z"
         style="fill:#0096ff;fill-opacity:1;fill-rule:nonzero;stroke:none"
         id="path10246" />
      <path
         d="m 135.27,269.281 v 11.809 h 12.527 c 4.105,0 6.336,2.015 6.336,5.543 0,3.527 -2.375,5.762 -6.192,5.762 H 135.27 v 11.519 h 13.175 c 4.61,0 7.344,2.445 7.344,6.621 0,4.25 -2.734,6.77 -7.273,6.77 H 135.27 v 11.879 h 15.55 c 12.532,0 19.875,-6.118 19.875,-16.485 0,-4.754 -1.586,-8.64 -4.683,-11.379 -2.086,-1.8 -3.957,-2.664 -7.489,-3.457 2.954,-1.078 4.25,-1.797 5.836,-3.164 2.735,-2.449 4.172,-5.906 4.172,-10.297 0,-9.504 -6.84,-15.121 -18.504,-15.121 z"
         style="fill:#0096ff;fill-opacity:1;fill-rule:nonzero;stroke:none"
         id="path10248" />
    </g>
  </g>
</svg>
