<?xml version="1.0" encoding="UTF-8" standalone="no"?>
<svg
   xmlns:dc="http://purl.org/dc/elements/1.1/"
   xmlns:cc="http://creativecommons.org/ns#"
   xmlns:rdf="http://www.w3.org/1999/02/22-rdf-syntax-ns#"
   xmlns:svg="http://www.w3.org/2000/svg"
   xmlns="http://www.w3.org/2000/svg"
   xmlns:sodipodi="http://sodipodi.sourceforge.net/DTD/sodipodi-0.dtd"
   xmlns:inkscape="http://www.inkscape.org/namespaces/inkscape"
   width="3.5in"
   height="3.5in"
   viewBox="0 0 88.900001 88.900003"
   version="1.1"
   id="svg8"
   inkscape:version="1.0.2 (e86c8708, 2021-01-15)"
   sodipodi:docname="btyperdb_button.svg">
  <defs
     id="defs2" />
  <sodipodi:namedview
     id="base"
     pagecolor="#ffffff"
     bordercolor="#666666"
     borderopacity="1.0"
     inkscape:pageopacity="0.0"
     inkscape:pageshadow="2"
     inkscape:zoom="1.6571773"
     inkscape:cx="165.20162"
     inkscape:cy="147.87153"
     inkscape:document-units="mm"
     inkscape:current-layer="layer1"
     inkscape:document-rotation="0"
     showgrid="false"
     units="in"
     inkscape:window-width="1680"
     inkscape:window-height="997"
     inkscape:window-x="0"
     inkscape:window-y="25"
     inkscape:window-maximized="0" />
  <metadata
     id="metadata5">
    <rdf:RDF>
      <cc:Work
         rdf:about="">
        <dc:format>image/svg+xml</dc:format>
        <dc:type
           rdf:resource="http://purl.org/dc/dcmitype/StillImage" />
        <dc:title></dc:title>
      </cc:Work>
    </rdf:RDF>
  </metadata>
  <g
     inkscape:label="Layer 1"
     inkscape:groupmode="layer"
     id="layer1">
    <rect
       style="fill:none;stroke:#9ab2d6;stroke-width:1.14712;stroke-miterlimit:4;stroke-dasharray:none;stroke-opacity:1"
       id="rect950"
       width="86.029007"
       height="86.029007"
       x="1.4718592"
       y="1.3519907" />
    <g
       id="g868"
       transform="matrix(0.1778693,0,0,0.1778693,6.6700155,36.56906)">
      <path
         d="m 5.863,7.082 c 0.43,3.457 0.575,6.551 0.575,10.367 v 39.387 c 0,5.039 -0.145,7.484 -0.575,10.582 3.094,-0.145 5.184,-0.215 10.657,-0.215 h 4.027 V 7.297 h -4.102 c -5.902,0 -6.91,0 -10.582,-0.215 z"
         style="fill:#000000;fill-opacity:1;fill-rule:nonzero;stroke:none"
         id="path870" />
      <path
         d="m 93.98,20.043 h 8.137 c 5.184,0 7.992,0.141 11.235,0.504 V 6.793 c -3.313,0.359 -6.196,0.504 -11.235,0.504 H 70.582 c -4.391,0 -8.352,-0.215 -10.727,-0.504 v 13.754 c 5.11,-0.434 6.336,-0.504 10.872,-0.504 h 8.496 v 36.285 c 0,4.539 -0.145,7.488 -0.578,10.875 H 94.559 C 94.125,63.816 93.98,60.648 93.98,56.328 Z"
         style="fill:#000000;fill-opacity:1;fill-rule:nonzero;stroke:none"
         id="path872" />
      <path
         d="m 124.875,63.312 -1.512,3.098 c -1.082,2.16 -3.097,3.383 -5.832,3.383 -1.875,0 -3.242,-0.359 -5.617,-1.582 l -1.582,11.445 c 3.957,0.867 6.695,1.227 9.863,1.227 8.207,0 13.391,-3.098 16.27,-9.867 L 152.953,32.93 c 2.52,-5.903 2.52,-5.903 4.32,-9.649 h -15.625 c -0.429,2.52 -1.078,4.61 -3.093,9.578 l -6.41,16.344 -6.622,-16.633 c -1.511,-3.89 -2.449,-6.984 -2.808,-9.289 H 107.09 c 0.937,1.801 1.222,2.449 4.32,9.649 z"
         style="fill:#000000;fill-opacity:1;fill-rule:nonzero;stroke:none"
         id="path874" />
      <path
         d="m 176.352,80.234 c -0.434,-3.097 -0.579,-6.41 -0.579,-10.441 v -4.969 c -0.07,-1.008 -0.07,-1.941 -0.07,-2.59 2.016,1.727 3.094,2.52 4.965,3.313 2.664,1.152 6.336,1.871 9.723,1.871 5.902,0 11.16,-2.016 14.832,-5.688 4.101,-4.105 6.261,-10.082 6.261,-17.425 0,-7.27 -1.941,-12.961 -5.757,-16.774 -3.747,-3.672 -8.93,-5.547 -15.266,-5.547 -5.977,0 -10.438,1.512 -14.758,5.114 0,-0.36 0.07,-0.938 0.07,-1.368 V 23.281 H 161.59 c 0.433,3.672 0.574,6.625 0.574,11.305 v 35.137 c 0,3.816 -0.215,7.414 -0.574,10.511 z m 10.871,-23.687 c -6.481,0 -11.305,-5.113 -11.305,-11.883 0,-6.551 4.894,-11.805 10.871,-11.805 6.77,0 10.656,4.246 10.656,11.59 0,4.106 -1.152,7.418 -3.168,9.36 -1.871,1.8 -4.32,2.738 -7.054,2.738 z"
         style="fill:#000000;fill-opacity:1;fill-rule:nonzero;stroke:none"
         id="path876" />
      <path
         d="m 261.055,49.273 c -0.075,-0.718 -0.075,-1.152 -0.075,-1.441 -0.214,-4.102 -0.503,-7.125 -1.078,-9.43 -2.519,-10.73 -10.371,-16.847 -21.601,-16.847 -13.75,0 -22.895,9.429 -22.895,23.687 0,7.129 2.305,13.246 6.551,17.567 4.105,4.105 9.648,6.121 16.703,6.121 7.129,0 12.891,-2.09 16.992,-6.121 2.016,-2.016 3.098,-3.672 4.754,-7.414 l -12.527,-3.528 c -0.578,1.871 -1.082,2.664 -2.16,3.672 -1.875,1.727 -4.395,2.664 -7.274,2.664 -5.687,0 -9.07,-3.098 -9.793,-8.93 z m -32.184,-9.937 c 1.223,-4.75 4.317,-7.055 9.43,-7.055 4.969,0 8.062,2.449 9.074,7.055 z"
         style="fill:#000000;fill-opacity:1;fill-rule:nonzero;stroke:none"
         id="path878" />
      <path
         d="m 302.633,23.281 c -3.383,-0.719 -4.824,-0.863 -7.129,-0.863 -6.551,0 -10.871,1.945 -14.399,6.551 v -5.688 h -14.328 c 0.434,3.098 0.575,5.617 0.575,10.871 v 22.176 c 0,4.68 -0.141,7.274 -0.575,10.875 h 14.903 c -0.43,-3.457 -0.575,-6.195 -0.575,-10.801 V 45.168 c 0.29,-3.168 0.793,-4.68 2.161,-6.406 2.086,-2.594 4.894,-3.887 8.566,-3.887 2.234,0 4.031,0.359 7.344,1.367 z"
         style="fill:#000000;fill-opacity:1;fill-rule:nonzero;stroke:none"
         id="path880" />
      <path
         d="m 308.293,56.906 c 0,4.969 -0.145,7.344 -0.578,10.512 3.023,-0.145 5.043,-0.215 10.586,-0.215 h 15.191 c 8.567,0 15.406,-2.449 20.231,-7.203 5.472,-5.469 8.351,-13.391 8.351,-23.254 0,-9.578 -2.664,-17.137 -7.918,-22.32 -4.824,-4.68 -11.953,-7.129 -20.808,-7.129 h -15.047 c -5.977,0 -7.778,-0.07 -10.656,-0.215 0.503,3.313 0.648,5.688 0.648,10.582 z m 14.254,-2.304 V 19.898 h 9.433 c 5.184,0 8.641,1.153 11.161,3.672 2.808,2.809 4.175,7.27 4.175,13.391 0,5.977 -1.586,10.801 -4.535,13.824 -2.593,2.594 -5.906,3.817 -10.586,3.817 z"
         style="fill:#0096ff;fill-opacity:1;fill-rule:nonzero;stroke:none"
         id="path882" />
      <path
         d="m 399.477,67.203 c 12.527,0 19.875,-6.121 19.875,-16.488 0,-4.754 -1.586,-8.641 -4.684,-11.379 -2.086,-1.797 -3.957,-2.664 -7.484,-3.453 2.949,-1.082 4.246,-1.801 5.832,-3.168 2.734,-2.449 4.175,-5.906 4.175,-10.297 0,-9.504 -6.839,-15.121 -18.503,-15.121 H 379.82 c -5.902,0 -6.91,0 -10.582,-0.215 0.43,3.457 0.574,6.551 0.574,10.367 v 39.383 c 0,5.043 -0.144,7.488 -0.574,10.586 3.094,-0.145 5.184,-0.215 10.657,-0.215 z M 383.926,30.41 V 19.105 h 12.527 c 4.106,0 6.336,2.016 6.336,5.543 0,3.528 -2.375,5.762 -6.191,5.762 z m 0,11.52 h 13.176 c 4.609,0 7.343,2.449 7.343,6.625 0,4.246 -2.734,6.765 -7.273,6.765 h -13.246 z"
         style="fill:#0096ff;fill-opacity:1;fill-rule:nonzero;stroke:none"
         id="path884" />
      <path
         d="m 20.547,7.297 v 59.906 h 15.555 c 12.531,0 19.875,-6.121 19.875,-16.488 0,-4.754 -1.586,-8.641 -4.68,-11.375 -2.09,-1.801 -3.961,-2.668 -7.488,-3.457 2.949,-1.082 4.246,-1.801 5.828,-3.168 2.738,-2.449 4.179,-5.906 4.179,-10.297 0,-9.504 -6.839,-15.121 -18.504,-15.121 z m 0.004,11.808 h 12.527 c 4.106,0 6.336,2.016 6.336,5.543 0,3.532 -2.375,5.762 -6.191,5.762 H 20.551 Z m 0,22.825 h 13.176 c 4.609,0 7.343,2.449 7.343,6.625 0,4.246 -2.734,6.765 -7.269,6.765 h -13.25 z"
         style="fill:#0096ff;fill-opacity:1;fill-rule:nonzero;stroke:none"
         id="path886" />
    </g>
  </g>
</svg>
